<svg xmlns="http://www.w3.org/2000/svg" width="426" height="374"><defs><style>.cls-1{fill:#f8f8ff}.cls-2{fill:#c5c5ff;opacity:.05}.cls-4{fill:#202020}.cls-11,.cls-15,.cls-5{fill:#2b2f7f}.cls-11,.cls-15{stroke:#2b2f7f}.cls-13{fill:#ed3e35}.cls-15{stroke-width:.5px}</style></defs><g id="Group_4316" data-name="Group 4316" transform="translate(-751 -1752)"><path id="Polygon_2" data-name="Polygon 2" class="cls-1" d="M99.266 0a6 6 0 015.211 3.026l30.825 54a6 6 0 010 5.949l-30.825 54A6 6 0 0199.266 120H37.734a6 6 0 01-5.211-3.026l-30.823-54a6 6 0 010-5.949l30.825-54A6 6 0 0137.734 0z" transform="translate(785 1815)"/><path id="Polygon_5" data-name="Polygon 5" class="cls-1" d="M99.281 0a6 6 0 015.2 3.007l30.8 53.5a6 6 0 010 5.987l-30.8 53.5a6 6 0 01-5.2 3.007H37.719a6 6 0 01-5.2-3.007l-30.8-53.5a6 6 0 010-5.987l30.8-53.5A6 6 0 0137.719 0z" transform="translate(785 1943)"/><path id="Polygon_18" data-name="Polygon 18" class="cls-1" d="M100.029 0a6 6 0 015.2 3.009l31.05 54a6 6 0 010 5.982l-31.05 54a6 6 0 01-5.2 3.009H37.971a6 6 0 01-5.2-3.009l-31.05-54a6 6 0 010-5.982l31.05-54A6 6 0 0137.971 0z" transform="translate(895 2006)"/><path id="Polygon_7" data-name="Polygon 7" class="cls-1" d="M99.281 0a6 6 0 015.2 3.007l30.8 53.5a6 6 0 010 5.987l-30.8 53.5a6 6 0 01-5.2 3.007H37.719a6 6 0 01-5.2-3.007l-30.8-53.5a6 6 0 010-5.987l30.8-53.5A6 6 0 0137.719 0z" transform="translate(1005 1943)"/><path id="Polygon_8" data-name="Polygon 8" class="cls-2" d="M43.741 0a6 6 0 015.229 3.058l12.375 22a6 6 0 010 5.883l-12.375 22A6 6 0 0143.741 56H19.259a6 6 0 01-5.229-3.058l-12.375-22a6 6 0 010-5.883l12.375-22A6 6 0 0119.259 0z" transform="translate(1023 1753)"/><path id="Polygon_46" data-name="Polygon 46" class="cls-2" d="M43.741 0a6 6 0 015.229 3.058l12.375 22a6 6 0 010 5.883l-12.375 22A6 6 0 0143.741 56H19.259a6 6 0 01-5.229-3.058l-12.375-22a6 6 0 010-5.883l12.375-22A6 6 0 0119.259 0z" transform="translate(842 1752)"/><path id="Polygon_47" data-name="Polygon 47" class="cls-2" d="M43.741 0a6 6 0 015.229 3.058l12.375 22a6 6 0 010 5.883l-12.375 22A6 6 0 0143.741 56H19.259a6 6 0 01-5.229-3.058l-12.375-22a6 6 0 010-5.883l12.375-22A6 6 0 0119.259 0z" transform="translate(751 1911)"/><path id="Polygon_48" data-name="Polygon 48" class="cls-2" d="M43.741 0a6 6 0 015.229 3.058l12.375 22a6 6 0 010 5.883l-12.375 22A6 6 0 0143.741 56H19.259a6 6 0 01-5.229-3.058l-12.375-22a6 6 0 010-5.883l12.375-22A6 6 0 0119.259 0z" transform="translate(842 2069)"/><path id="Polygon_49" data-name="Polygon 49" class="cls-2" d="M43.741 0a6 6 0 015.229 3.058l12.375 22a6 6 0 010 5.883l-12.375 22A6 6 0 0143.741 56H19.259a6 6 0 01-5.229-3.058l-12.375-22a6 6 0 010-5.883l12.375-22A6 6 0 0119.259 0z" transform="translate(1023 2069)"/><path id="Polygon_9" data-name="Polygon 9" class="cls-2" d="M43.741 0a6 6 0 015.229 3.058l12.375 22a6 6 0 010 5.883l-12.375 22A6 6 0 0143.741 56H19.259a6 6 0 01-5.229-3.058l-12.375-22a6 6 0 010-5.883l12.375-22A6 6 0 0119.259 0z" transform="translate(1114 1911)"/><path id="Polygon_3" data-name="Polygon 3" class="cls-1" d="M100.029 0a6 6 0 015.2 3.009l31.05 54a6 6 0 010 5.982l-31.05 54a6 6 0 01-5.2 3.009H37.971a6 6 0 01-5.2-3.009l-31.05-54a6 6 0 010-5.982l31.05-54A6 6 0 0137.971 0z" transform="translate(895 1752)"/><path id="Polygon_6" data-name="Polygon 6" class="cls-1" d="M99.266 0a6 6 0 015.211 3.026l30.825 54a6 6 0 010 5.949l-30.825 54A6 6 0 0199.266 120H37.734a6 6 0 01-5.211-3.026l-30.823-54a6 6 0 010-5.949l30.825-54A6 6 0 0137.734 0z" transform="translate(1005 1815)"/><path id="Polygon_4" data-name="Polygon 4" d="M100.029 0a6 6 0 015.2 3.009l31.05 54a6 6 0 010 5.982l-31.05 54a6 6 0 01-5.2 3.009H37.971a6 6 0 01-5.2-3.009l-31.05-54a6 6 0 010-5.982l31.05-54A6 6 0 0137.971 0z" transform="translate(895 1879)" fill="#d6d6ff"/><path id="Path_46713" data-name="Path 46713" class="cls-4" d="M-4.329 0l-.018-7.56-3.708 6.228h-1.314l-3.69-6.068V0h-2.736v-12.6h2.412l4.716 7.83 4.644-7.83h2.394L-1.593 0zM1.4-12.6h2.911V0H1.4zM11.439.216A10.309 10.309 0 018.55-.189a6.776 6.776 0 01-2.241-1.053l.99-2.2a6.718 6.718 0 001.926.954 7.234 7.234 0 002.232.36 3.566 3.566 0 001.836-.369 1.115 1.115 0 00.594-.981.938.938 0 00-.351-.747 2.661 2.661 0 00-.9-.477q-.549-.18-1.485-.4a20.528 20.528 0 01-2.358-.684 3.831 3.831 0 01-1.575-1.1 2.965 2.965 0 01-.657-2.016 3.507 3.507 0 01.594-1.989 4 4 0 011.791-1.413 7.308 7.308 0 012.925-.522 9.685 9.685 0 012.358.288 6.966 6.966 0 012.016.828l-.9 2.214a7.026 7.026 0 00-3.492-.99 3.274 3.274 0 00-1.809.4 1.209 1.209 0 00-.585 1.044 1.021 1.021 0 00.675.963 10.6 10.6 0 002.061.621 20.528 20.528 0 012.358.684 3.9 3.9 0 011.575 1.08 2.9 2.9 0 01.657 2 3.441 3.441 0 01-.6 1.971 4.051 4.051 0 01-1.812 1.417 7.375 7.375 0 01-2.934.522zM-27.585 20l-2.43-3.51H-32.7V20h-2.916V7.4h5.454a7 7 0 012.907.558 4.319 4.319 0 011.9 1.584 4.364 4.364 0 01.666 2.43 4.277 4.277 0 01-.675 2.421 4.278 4.278 0 01-1.917 1.557l2.828 4.05zm-.054-8.028a2 2 0 00-.684-1.629 3.062 3.062 0 00-2-.567H-32.7v4.392h2.376a3.029 3.029 0 002-.576 2 2 0 00.685-1.62zm14.544 3.222q0 .054-.054.756h-7.326a2.282 2.282 0 00.936 1.422 3.1 3.1 0 001.836.522 3.718 3.718 0 001.341-.225 3.248 3.248 0 001.089-.711l1.494 1.62a5.021 5.021 0 01-4 1.566 6.321 6.321 0 01-2.9-.639 4.684 4.684 0 01-1.944-1.773 4.885 4.885 0 01-.684-2.574 4.949 4.949 0 01.675-2.565 4.729 4.729 0 011.854-1.782 5.444 5.444 0 012.637-.639 5.4 5.4 0 012.574.612 4.467 4.467 0 011.809 1.755 5.233 5.233 0 01.663 2.655zm-5.022-2.9a2.418 2.418 0 00-1.6.54 2.3 2.3 0 00-.792 1.476h4.77a2.322 2.322 0 00-.792-1.467 2.367 2.367 0 00-1.586-.543zM-5.5 10.172a4.935 4.935 0 012.457.621A4.459 4.459 0 01-1.3 12.539a5.271 5.271 0 01.63 2.619 5.271 5.271 0 01-.63 2.619 4.459 4.459 0 01-1.737 1.746 4.935 4.935 0 01-2.457.621 3.74 3.74 0 01-2.916-1.17v4.518h-2.808V10.316h2.682v1.116a3.724 3.724 0 013.036-1.26zm-.486 7.668a2.339 2.339 0 001.773-.729 2.717 2.717 0 00.693-1.953 2.717 2.717 0 00-.692-1.958 2.339 2.339 0 00-1.773-.729 2.339 2.339 0 00-1.773.729 2.717 2.717 0 00-.693 1.953 2.717 2.717 0 00.693 1.953 2.339 2.339 0 001.773.734zm11.79 2.3a5.807 5.807 0 01-2.744-.64 4.75 4.75 0 01-1.9-1.773 4.885 4.885 0 01-.684-2.574 4.885 4.885 0 01.684-2.574 4.75 4.75 0 011.9-1.773 5.807 5.807 0 012.745-.639 5.753 5.753 0 012.736.639 4.765 4.765 0 011.89 1.773 4.885 4.885 0 01.684 2.574 4.885 4.885 0 01-.684 2.574 4.765 4.765 0 01-1.89 1.773 5.753 5.753 0 01-2.736.644zm0-2.3a2.339 2.339 0 001.773-.729 2.717 2.717 0 00.693-1.953 2.717 2.717 0 00-.692-1.958 2.339 2.339 0 00-1.773-.729 2.368 2.368 0 00-1.782.729 2.7 2.7 0 00-.7 1.953 2.7 2.7 0 00.7 1.953 2.368 2.368 0 001.782.734zm9.864-6.246a3.123 3.123 0 011.359-1.062 5.044 5.044 0 011.973-.36v2.592q-.468-.036-.63-.036a2.574 2.574 0 00-1.89.675 2.728 2.728 0 00-.684 2.025V20h-2.809v-9.684h2.682zm11.592 7.938a2.886 2.886 0 01-1.017.459 5.142 5.142 0 01-1.269.153 3.77 3.77 0 01-2.673-.882 3.375 3.375 0 01-.945-2.592v-3.978h-1.493v-2.16h1.494V8.174h2.808v2.358h2.412v2.16h-2.412v3.942a1.322 1.322 0 00.315.945 1.167 1.167 0 00.891.333 1.8 1.8 0 001.134-.36zm4.842.612a9.407 9.407 0 01-2.358-.3 6.161 6.161 0 01-1.836-.747l.936-2.016a5.891 5.891 0 001.566.675 6.563 6.563 0 001.8.261q1.782 0 1.782-.882a.624.624 0 00-.486-.594 7.2 7.2 0 00-1.494-.306 14.412 14.412 0 01-1.962-.414A3.044 3.044 0 0128.71 15a2.354 2.354 0 01-.567-1.692 2.65 2.65 0 01.531-1.629 3.418 3.418 0 011.548-1.107 6.611 6.611 0 012.4-.4 9.431 9.431 0 012.043.225 5.711 5.711 0 011.683.621l-.936 2a5.588 5.588 0 00-2.79-.72 2.839 2.839 0 00-1.35.252.741.741 0 00-.45.648.643.643 0 00.486.63 8.6 8.6 0 001.548.342 16.57 16.57 0 011.944.423 2.92 2.92 0 011.314.819 2.324 2.324 0 01.558 1.656 2.557 2.557 0 01-.54 1.6 3.447 3.447 0 01-1.575 1.089 7.017 7.017 0 01-2.457.387z" transform="translate(964 1933)"/><path id="Path_46710" data-name="Path 46710" class="cls-4" d="M-23.163 0l-2.114-3.01q-.392.028-.616.028h-2.422V0h-1.4v-9.8h3.822a4.54 4.54 0 013 .91 3.086 3.086 0 011.092 2.506 3.278 3.278 0 01-.56 1.932 3.164 3.164 0 01-1.6 1.162L-21.637 0zm-2.772-4.172a3.132 3.132 0 002.03-.574 2 2 0 00.7-1.638 1.977 1.977 0 00-.7-1.631 3.16 3.16 0 00-2.03-.567h-2.38v4.41zm12.908.5a3.852 3.852 0 01-.028.406h-6.02a2.33 2.33 0 00.861 1.575 2.81 2.81 0 001.827.6 2.752 2.752 0 002.142-.9l.742.868a3.25 3.25 0 01-1.253.9 4.361 4.361 0 01-1.673.308A4.382 4.382 0 01-18.515-.4a3.445 3.445 0 01-1.407-1.35 3.873 3.873 0 01-.5-1.96 3.933 3.933 0 01.483-1.946 3.46 3.46 0 011.33-1.351 3.789 3.789 0 011.911-.483 3.712 3.712 0 011.9.483 3.392 3.392 0 011.3 1.351 4.116 4.116 0 01.471 1.988zm-3.668-2.688a2.323 2.323 0 00-1.617.588 2.37 2.37 0 00-.763 1.54h4.76a2.386 2.386 0 00-.763-1.533 2.307 2.307 0 00-1.617-.591zm11.956-1.06L-7.987 0h-1.372l-3.248-7.42h1.4l2.548 5.95 2.6-5.95zm7.756 3.752a3.852 3.852 0 01-.028.406h-6.02a2.33 2.33 0 00.861 1.575 2.81 2.81 0 001.827.6 2.752 2.752 0 002.142-.9l.742.868a3.25 3.25 0 01-1.253.9A4.361 4.361 0 01-.385.084 4.382 4.382 0 01-2.471-.4a3.445 3.445 0 01-1.407-1.35 3.873 3.873 0 01-.5-1.96 3.933 3.933 0 01.483-1.946 3.46 3.46 0 011.33-1.351A3.789 3.789 0 01-.651-7.49a3.712 3.712 0 011.9.483 3.392 3.392 0 011.3 1.351 4.116 4.116 0 01.468 1.988zM-.651-6.356a2.323 2.323 0 00-1.617.588 2.37 2.37 0 00-.763 1.54h4.76a2.386 2.386 0 00-.763-1.533 2.307 2.307 0 00-1.617-.595zM8.841-7.49a3.066 3.066 0 012.247.819 3.221 3.221 0 01.833 2.4V0h-1.344v-4.116a2.278 2.278 0 00-.518-1.624 1.948 1.948 0 00-1.484-.546 2.312 2.312 0 00-1.722.637 2.489 2.489 0 00-.63 1.827V0H4.879v-7.42h1.288v1.12a2.612 2.612 0 011.1-.882 3.84 3.84 0 011.574-.308zm12.488.07V0h-1.274v-1.12a2.7 2.7 0 01-1.071.889 3.341 3.341 0 01-1.449.315A3.238 3.238 0 0115.2-.735a3.194 3.194 0 01-.854-2.415v-4.27h1.344v4.12a2.3 2.3 0 00.51 1.627 1.934 1.934 0 001.484.553 2.215 2.215 0 001.68-.644 2.528 2.528 0 00.616-1.82V-7.42zM30.6-3.668a3.852 3.852 0 01-.028.406h-6.02a2.33 2.33 0 00.861 1.575 2.81 2.81 0 001.827.6 2.752 2.752 0 002.142-.9l.742.868a3.25 3.25 0 01-1.253.9 4.361 4.361 0 01-1.673.308A4.382 4.382 0 0125.109-.4 3.445 3.445 0 0123.7-1.75a3.873 3.873 0 01-.5-1.96 3.933 3.933 0 01.483-1.946 3.46 3.46 0 011.33-1.351 3.789 3.789 0 011.911-.483 3.712 3.712 0 011.9.483 3.392 3.392 0 011.3 1.351 4.116 4.116 0 01.476 1.988zm-3.671-2.688a2.323 2.323 0 00-1.617.588 2.37 2.37 0 00-.763 1.54h4.76a2.386 2.386 0 00-.763-1.533 2.307 2.307 0 00-1.617-.595z" transform="translate(964 1843)"/><path id="Path_46707" data-name="Path 46707" class="cls-4" d="M-25.424-8.582v3.416h4.914v1.2h-4.914V0h-1.4v-9.8h6.916v1.218zm7.154 1.162h1.344V0h-1.344zm.672-1.428a.9.9 0 01-.651-.252.827.827 0 01-.259-.616.849.849 0 01.259-.623.883.883 0 01.649-.261.91.91 0 01.651.245.8.8 0 01.259.609.866.866 0 01-.259.637.883.883 0 01-.651.261zm7.2 1.358a3.066 3.066 0 012.247.819 3.221 3.221 0 01.833 2.4V0h-1.348v-4.116a2.278 2.278 0 00-.518-1.624 1.948 1.948 0 00-1.484-.546 2.312 2.312 0 00-1.722.637 2.489 2.489 0 00-.63 1.827V0h-1.344v-7.42h1.288v1.12a2.612 2.612 0 011.1-.882A3.84 3.84 0 01-10.4-7.49zm8.274 0a3.356 3.356 0 012.359.756A2.919 2.919 0 011.05-4.48V0H-.224v-.98a2.124 2.124 0 01-.959.791A3.66 3.66 0 01-2.66.084a3.091 3.091 0 01-1.995-.6A1.931 1.931 0 01-5.4-2.1a1.948 1.948 0 01.71-1.575 3.519 3.519 0 012.268-.595h2.128v-.266a1.714 1.714 0 00-.5-1.33 2.126 2.126 0 00-1.484-.462 3.929 3.929 0 00-1.288.217 3.318 3.318 0 00-1.064.581l-.56-1.008a4.064 4.064 0 011.372-.707 5.741 5.741 0 011.69-.245zm-.312 6.538a2.5 2.5 0 001.33-.348 1.963 1.963 0 00.812-.973V-3.3h-2.072q-1.708 0-1.708 1.148a1.039 1.039 0 00.434.882 1.984 1.984 0 001.204.318zM7.5-7.49a3.066 3.066 0 012.247.819 3.221 3.221 0 01.833 2.4V0H9.24v-4.116a2.278 2.278 0 00-.518-1.624 1.948 1.948 0 00-1.484-.546 2.312 2.312 0 00-1.722.637 2.489 2.489 0 00-.63 1.827V0H3.542v-7.42H4.83v1.12a2.612 2.612 0 011.1-.882A3.84 3.84 0 017.5-7.49zM16.352.084a4.121 4.121 0 01-2.023-.49 3.59 3.59 0 01-1.393-1.351 3.793 3.793 0 01-.5-1.953 3.793 3.793 0 01.5-1.953 3.541 3.541 0 011.393-1.344 4.169 4.169 0 012.023-.483 3.883 3.883 0 011.8.406 2.892 2.892 0 011.225 1.176l-1.022.658a2.283 2.283 0 00-.868-.8 2.476 2.476 0 00-1.148-.266 2.654 2.654 0 00-1.309.322 2.3 2.3 0 00-.91.917 2.774 2.774 0 00-.33 1.367 2.8 2.8 0 00.329 1.379 2.3 2.3 0 00.91.917 2.654 2.654 0 001.309.322 2.476 2.476 0 001.148-.266 2.283 2.283 0 00.868-.8l1.022.644a2.936 2.936 0 01-1.225 1.185 3.829 3.829 0 01-1.799.413zm11.354-3.752a3.852 3.852 0 01-.028.406h-6.02a2.33 2.33 0 00.861 1.575 2.81 2.81 0 001.827.6 2.752 2.752 0 002.142-.9l.742.868a3.25 3.25 0 01-1.253.9A4.361 4.361 0 0124.3.084 4.382 4.382 0 0122.218-.4a3.445 3.445 0 01-1.407-1.35 3.873 3.873 0 01-.5-1.96 3.933 3.933 0 01.489-1.946 3.46 3.46 0 011.33-1.351 3.789 3.789 0 011.911-.483 3.712 3.712 0 011.9.483 3.392 3.392 0 011.3 1.351 4.116 4.116 0 01.465 1.988zm-3.668-2.688a2.323 2.323 0 00-1.617.588 2.37 2.37 0 00-.763 1.54h4.76a2.386 2.386 0 00-.763-1.533 2.307 2.307 0 00-1.617-.595z" transform="translate(964 2096)"/><path id="Path_46711" data-name="Path 46711" class="cls-4" d="M-25.011-1.218V0h-7.112v-9.8h6.916v1.218h-5.516v3.01h4.914v1.19h-4.914v3.164zM-18.375 0l-2.142-2.842L-22.687 0h-1.5l2.926-3.794-2.784-3.626h1.5l2.045 2.674 2.03-2.674H-17l-2.8 3.626L-16.849 0zm6.93-7.49a3.9 3.9 0 011.932.476 3.424 3.424 0 011.337 1.33 3.941 3.941 0 01.483 1.974 3.98 3.98 0 01-.483 1.981A3.411 3.411 0 01-9.513-.392a3.9 3.9 0 01-1.932.476 3.439 3.439 0 01-1.463-.308 3.043 3.043 0 01-1.127-.9v3.84h-1.344V-7.42h1.288v1.176a2.853 2.853 0 011.134-.931 3.58 3.58 0 011.512-.315zm-.112 6.4a2.505 2.505 0 001.281-.329 2.371 2.371 0 00.9-.924 2.774 2.774 0 00.325-1.367 2.774 2.774 0 00-.329-1.365 2.321 2.321 0 00-.9-.917 2.548 2.548 0 00-1.281-.322 2.478 2.478 0 00-1.267.329 2.384 2.384 0 00-.9.917 2.734 2.734 0 00-.329 1.358 2.822 2.822 0 00.322 1.365 2.308 2.308 0 00.9.924 2.516 2.516 0 001.278.329zM.875-3.668a3.852 3.852 0 01-.028.406h-6.02a2.33 2.33 0 00.861 1.575 2.81 2.81 0 001.827.6 2.752 2.752 0 002.142-.9L.4-1.12a3.25 3.25 0 01-1.253.9 4.361 4.361 0 01-1.674.304A4.382 4.382 0 01-4.613-.4 3.445 3.445 0 01-6.02-1.75a3.873 3.873 0 01-.5-1.96 3.933 3.933 0 01.483-1.946A3.46 3.46 0 01-4.7-7.007a3.789 3.789 0 011.907-.483 3.712 3.712 0 011.9.483 3.392 3.392 0 011.3 1.351 4.116 4.116 0 01.468 1.988zm-3.668-2.688a2.323 2.323 0 00-1.617.588 2.37 2.37 0 00-.763 1.54h4.76a2.386 2.386 0 00-.763-1.533 2.307 2.307 0 00-1.617-.595zM6.7-7.49a3.066 3.066 0 012.247.819 3.221 3.221 0 01.833 2.4V0H8.435v-4.116a2.278 2.278 0 00-.518-1.624 1.948 1.948 0 00-1.484-.546 2.312 2.312 0 00-1.722.637 2.489 2.489 0 00-.63 1.827V0H2.737v-7.42h1.288v1.12a2.612 2.612 0 011.1-.882A3.84 3.84 0 016.7-7.49zM14.4.084a6.218 6.218 0 01-1.75-.245 3.843 3.843 0 01-1.316-.623l.56-1.064a4.02 4.02 0 001.19.56 4.9 4.9 0 001.414.21q1.764 0 1.764-1.008a.653.653 0 00-.238-.532 1.507 1.507 0 00-.6-.287q-.357-.091-1.015-.2a9.947 9.947 0 01-1.459-.325 2.255 2.255 0 01-.973-.616 1.714 1.714 0 01-.406-1.218 1.9 1.9 0 01.84-1.617 3.762 3.762 0 012.254-.609 6.209 6.209 0 011.484.182 3.991 3.991 0 011.218.49l-.574 1.064a3.859 3.859 0 00-2.142-.588 2.476 2.476 0 00-1.3.28.845.845 0 00-.448.742.707.707 0 00.252.574 1.594 1.594 0 00.623.308q.371.1 1.043.224a11.32 11.32 0 011.449.329 2.164 2.164 0 01.945.595 1.657 1.657 0 01.385 1.176 1.854 1.854 0 01-.861 1.6A4.066 4.066 0 0114.4.084zm11.591-3.752a3.852 3.852 0 01-.028.406h-6.02a2.33 2.33 0 00.857 1.575 2.81 2.81 0 001.827.6 2.752 2.752 0 002.142-.9l.742.868a3.25 3.25 0 01-1.253.9 4.361 4.361 0 01-1.673.308A4.382 4.382 0 0120.5-.4a3.445 3.445 0 01-1.4-1.35 3.873 3.873 0 01-.5-1.96 3.933 3.933 0 01.483-1.946 3.46 3.46 0 011.33-1.351 3.789 3.789 0 011.911-.483 3.712 3.712 0 011.9.483 3.392 3.392 0 011.3 1.351 4.116 4.116 0 01.467 1.988zm-3.668-2.688a2.323 2.323 0 00-1.617.588 2.37 2.37 0 00-.763 1.54H24.7a2.386 2.386 0 00-.763-1.533 2.307 2.307 0 00-1.614-.595zm7.658 6.44a6.218 6.218 0 01-1.75-.245 3.843 3.843 0 01-1.316-.623l.56-1.064a4.02 4.02 0 001.19.56 4.9 4.9 0 001.414.21q1.764 0 1.764-1.008a.653.653 0 00-.238-.532 1.507 1.507 0 00-.6-.287q-.357-.091-1.015-.2a9.947 9.947 0 01-1.463-.322 2.255 2.255 0 01-.973-.616 1.714 1.714 0 01-.406-1.218 1.9 1.9 0 01.84-1.617 3.762 3.762 0 012.254-.609 6.209 6.209 0 011.484.182 3.991 3.991 0 011.218.49l-.574 1.064a3.859 3.859 0 00-2.142-.588 2.476 2.476 0 00-1.3.28.845.845 0 00-.448.742.707.707 0 00.252.574 1.594 1.594 0 00.623.308q.371.1 1.043.224a11.32 11.32 0 011.449.329 2.164 2.164 0 01.945.595 1.657 1.657 0 01.392 1.176 1.854 1.854 0 01-.861 1.6 4.066 4.066 0 01-2.342.595z" transform="translate(1074 1906)"/><path id="Path_46709" data-name="Path 46709" class="cls-4" d="M-32.361-9.8h1.4V0h-1.4zm8.106 2.31a3.066 3.066 0 012.247.819 3.221 3.221 0 01.833 2.4V0h-1.344v-4.116a2.278 2.278 0 00-.518-1.624 1.948 1.948 0 00-1.484-.546 2.312 2.312 0 00-1.722.637 2.489 2.489 0 00-.63 1.827V0h-1.344v-7.42h1.288v1.12a2.612 2.612 0 011.1-.882 3.84 3.84 0 011.574-.308zm12 .07L-15.505 0h-1.372l-3.248-7.42h1.4l2.548 5.95 2.6-5.95zM-4.5-3.668a3.852 3.852 0 01-.028.406h-6.02a2.33 2.33 0 00.861 1.575 2.81 2.81 0 001.827.6 2.752 2.752 0 002.142-.9l.742.868a3.25 3.25 0 01-1.253.9A4.361 4.361 0 01-7.9.084 4.382 4.382 0 01-9.989-.4 3.445 3.445 0 01-11.4-1.75a3.873 3.873 0 01-.5-1.96 3.933 3.933 0 01.483-1.946 3.46 3.46 0 011.33-1.351 3.789 3.789 0 011.918-.483 3.712 3.712 0 011.9.483 3.392 3.392 0 011.3 1.351A4.116 4.116 0 01-4.5-3.668zm-3.669-2.688a2.323 2.323 0 00-1.617.588 2.37 2.37 0 00-.763 1.54h4.76a2.386 2.386 0 00-.763-1.533 2.307 2.307 0 00-1.617-.595zM1.323-7.49a3.066 3.066 0 012.247.819A3.221 3.221 0 014.4-4.27V0H3.059v-4.116a2.278 2.278 0 00-.518-1.624 1.948 1.948 0 00-1.484-.546 2.312 2.312 0 00-1.722.637A2.489 2.489 0 00-1.3-3.822V0h-1.339v-7.42h1.288v1.12a2.612 2.612 0 011.1-.882 3.84 3.84 0 011.574-.308zm9.744 7.056a2.005 2.005 0 01-.728.385 3.041 3.041 0 01-.9.133 2.38 2.38 0 01-1.736-.6 2.3 2.3 0 01-.612-1.724v-4.074h-1.26V-7.42h1.26v-1.624h1.344v1.624h2.128v1.106H8.435V-2.3a1.3 1.3 0 00.3.924 1.121 1.121 0 00.865.326 1.62 1.62 0 001.05-.35zm4.55.518a4.024 4.024 0 01-1.988-.49 3.553 3.553 0 01-1.379-1.351 3.835 3.835 0 01-.5-1.953 3.835 3.835 0 01.5-1.953 3.5 3.5 0 011.379-1.344 4.07 4.07 0 011.988-.483 4.03 4.03 0 011.981.483 3.517 3.517 0 011.372 1.344 3.835 3.835 0 01.5 1.953 3.835 3.835 0 01-.5 1.953A3.567 3.567 0 0117.6-.406a3.984 3.984 0 01-1.983.49zm0-1.176a2.505 2.505 0 001.283-.329 2.322 2.322 0 00.889-.924 2.822 2.822 0 00.322-1.365 2.822 2.822 0 00-.322-1.365 2.274 2.274 0 00-.889-.917 2.548 2.548 0 00-1.281-.322 2.548 2.548 0 00-1.281.322 2.321 2.321 0 00-.9.917 2.774 2.774 0 00-.329 1.365 2.774 2.774 0 00.329 1.365 2.371 2.371 0 00.9.924 2.505 2.505 0 001.279.329zm7-5.082a2.293 2.293 0 011.036-.98 3.76 3.76 0 011.666-.336v1.3a2.624 2.624 0 00-.308-.014 2.261 2.261 0 00-1.715.651 2.577 2.577 0 00-.623 1.853V0h-1.344v-7.42h1.288zM33.845-7.42L30.247.742a3.681 3.681 0 01-1.113 1.6A2.54 2.54 0 0127.6 2.8a3.24 3.24 0 01-1.057-.175 2.17 2.17 0 01-.847-.511l.574-1.008a1.871 1.871 0 001.33.546 1.283 1.283 0 00.819-.259A2.209 2.209 0 0029.015.5l.238-.518-3.276-7.402h1.4l2.59 5.936 2.562-5.936z" transform="translate(854 1906)"/><path id="Path_46712" data-name="Path 46712" class="cls-4" d="M-26.95-1.218V0h-7.112v-9.8h6.916v1.218h-5.516v3.01h4.914v1.19h-4.914v3.164zM-15.6-7.49a3.013 3.013 0 012.219.812 3.25 3.25 0 01.819 2.408V0H-13.9v-4.116a2.34 2.34 0 00-.5-1.624 1.824 1.824 0 00-1.421-.546 2.128 2.128 0 00-1.624.637 2.559 2.559 0 00-.6 1.827V0h-1.345v-4.116a2.34 2.34 0 00-.5-1.624 1.824 1.824 0 00-1.421-.546 2.128 2.128 0 00-1.624.637 2.559 2.559 0 00-.6 1.827V0h-1.344v-7.42h1.288v1.106a2.6 2.6 0 011.064-.875 3.563 3.563 0 011.5-.3 3.285 3.285 0 011.54.35 2.432 2.432 0 011.036 1.022 2.843 2.843 0 011.169-1.008A3.81 3.81 0 01-15.6-7.49zm9.45 0a3.9 3.9 0 011.932.476 3.424 3.424 0 011.337 1.33 3.941 3.941 0 01.487 1.974 3.98 3.98 0 01-.483 1.981A3.411 3.411 0 01-4.214-.392a3.9 3.9 0 01-1.932.476 3.439 3.439 0 01-1.463-.308 3.043 3.043 0 01-1.127-.9v3.84h-1.344V-7.42h1.288v1.176a2.853 2.853 0 011.134-.931 3.58 3.58 0 011.512-.315zm-.112 6.4a2.505 2.505 0 001.281-.329 2.371 2.371 0 00.9-.924 2.774 2.774 0 00.329-1.367 2.774 2.774 0 00-.329-1.365 2.321 2.321 0 00-.9-.917 2.548 2.548 0 00-1.281-.322 2.478 2.478 0 00-1.267.329 2.384 2.384 0 00-.9.917A2.734 2.734 0 00-8.75-3.71a2.822 2.822 0 00.322 1.365 2.308 2.308 0 00.9.924 2.516 2.516 0 001.27.329zm5.726-9.3H.812V0H-.532zM6.552.084a4.024 4.024 0 01-1.988-.49 3.553 3.553 0 01-1.379-1.351 3.835 3.835 0 01-.5-1.953 3.835 3.835 0 01.5-1.953 3.5 3.5 0 011.379-1.344 4.07 4.07 0 011.988-.483 4.03 4.03 0 011.981.483 3.517 3.517 0 011.372 1.344 3.835 3.835 0 01.5 1.953 3.835 3.835 0 01-.5 1.953A3.567 3.567 0 018.533-.406a3.984 3.984 0 01-1.981.49zm0-1.176a2.505 2.505 0 001.281-.329 2.322 2.322 0 00.889-.924 2.822 2.822 0 00.322-1.365 2.822 2.822 0 00-.322-1.365 2.274 2.274 0 00-.889-.917 2.548 2.548 0 00-1.281-.322 2.548 2.548 0 00-1.281.322 2.321 2.321 0 00-.9.917 2.774 2.774 0 00-.325 1.365 2.774 2.774 0 00.329 1.365 2.371 2.371 0 00.9.924 2.505 2.505 0 001.277.329zM18.62-7.42L15.022.742a3.681 3.681 0 01-1.113 1.6 2.54 2.54 0 01-1.533.462 3.24 3.24 0 01-1.057-.175 2.17 2.17 0 01-.847-.511l.574-1.008a1.871 1.871 0 001.33.546 1.283 1.283 0 00.819-.259A2.209 2.209 0 0013.79.5l.238-.518-3.276-7.402h1.4l2.59 5.936L17.3-7.42zm7.756 3.752a3.852 3.852 0 01-.028.406h-6.02a2.33 2.33 0 00.861 1.575 2.81 2.81 0 001.827.6 2.752 2.752 0 002.142-.9l.742.868a3.25 3.25 0 01-1.253.9 4.361 4.361 0 01-1.673.308A4.382 4.382 0 0120.888-.4a3.445 3.445 0 01-1.407-1.35 3.873 3.873 0 01-.5-1.96 3.933 3.933 0 01.483-1.946A3.46 3.46 0 0120.8-7.007a3.789 3.789 0 011.911-.483 3.712 3.712 0 011.9.483 3.392 3.392 0 011.3 1.351 4.116 4.116 0 01.465 1.988zm-3.668-2.688a2.323 2.323 0 00-1.617.588 2.37 2.37 0 00-.763 1.54h4.76a2.386 2.386 0 00-.763-1.533 2.307 2.307 0 00-1.617-.595zm12.236 2.688a3.852 3.852 0 01-.028.406H28.9a2.33 2.33 0 00.861 1.575 2.81 2.81 0 001.827.6 2.752 2.752 0 002.142-.9l.742.868a3.25 3.25 0 01-1.253.9 4.361 4.361 0 01-1.673.308 4.382 4.382 0 01-2.09-.489 3.445 3.445 0 01-1.407-1.35 3.873 3.873 0 01-.5-1.96 3.933 3.933 0 01.483-1.946 3.46 3.46 0 011.33-1.351 3.789 3.789 0 011.911-.483 3.712 3.712 0 011.9.483 3.392 3.392 0 011.3 1.351 4.116 4.116 0 01.471 1.988zm-3.668-2.688a2.323 2.323 0 00-1.617.588 2.37 2.37 0 00-.763 1.54h4.76a2.386 2.386 0 00-.763-1.533 2.307 2.307 0 00-1.617-.595z" transform="translate(1074 2031)"/><path id="Path_46708" data-name="Path 46708" class="cls-4" d="M-29.127.112a5.41 5.41 0 01-2.653-.651 4.79 4.79 0 01-1.855-1.792 4.966 4.966 0 01-.672-2.569 4.966 4.966 0 01.672-2.569 4.777 4.777 0 011.862-1.792 5.45 5.45 0 012.66-.651 5.552 5.552 0 012.1.385 4.3 4.3 0 011.624 1.141l-.91.882a3.651 3.651 0 00-2.758-1.162 4 4 0 00-1.974.49 3.553 3.553 0 00-1.379 1.351 3.78 3.78 0 00-.5 1.925 3.78 3.78 0 00.5 1.925 3.553 3.553 0 001.379 1.351 4 4 0 001.974.49A3.659 3.659 0 00-26.3-2.31l.91.882A4.355 4.355 0 01-27.02-.28a5.517 5.517 0 01-2.107.392zM-16.9-7.42V0h-1.274v-1.12a2.7 2.7 0 01-1.071.889A3.341 3.341 0 01-20.7.084a3.238 3.238 0 01-2.338-.819 3.194 3.194 0 01-.854-2.415v-4.27h1.344v4.12a2.3 2.3 0 00.518 1.631 1.934 1.934 0 001.484.553 2.215 2.215 0 001.68-.644 2.528 2.528 0 00.616-1.82v-3.84zm4.69 7.5a6.218 6.218 0 01-1.75-.245 3.843 3.843 0 01-1.316-.623l.56-1.064a4.02 4.02 0 001.19.56 4.9 4.9 0 001.414.21q1.764 0 1.764-1.008a.653.653 0 00-.238-.532 1.507 1.507 0 00-.6-.287q-.357-.091-1.015-.2a9.947 9.947 0 01-1.463-.322 2.255 2.255 0 01-.973-.616 1.714 1.714 0 01-.406-1.218 1.9 1.9 0 01.84-1.617 3.762 3.762 0 012.254-.609 6.209 6.209 0 011.484.182 3.991 3.991 0 011.218.49l-.574 1.064a3.859 3.859 0 00-2.142-.588 2.476 2.476 0 00-1.3.28.845.845 0 00-.448.742.707.707 0 00.252.574 1.594 1.594 0 00.623.308q.371.1 1.043.224a11.32 11.32 0 011.449.329 2.164 2.164 0 01.944.596 1.657 1.657 0 01.392 1.176 1.854 1.854 0 01-.861 1.6 4.066 4.066 0 01-2.346.598zm9.058-.518a2.005 2.005 0 01-.728.385 3.041 3.041 0 01-.9.133 2.38 2.38 0 01-1.736-.6 2.3 2.3 0 01-.617-1.72v-4.074h-1.26V-7.42h1.26v-1.624h1.344v1.624h2.128v1.106h-2.128V-2.3a1.3 1.3 0 00.3.924 1.121 1.121 0 00.861.322 1.62 1.62 0 001.05-.35zm4.55.518A4.024 4.024 0 01-.595-.406a3.553 3.553 0 01-1.379-1.351 3.835 3.835 0 01-.5-1.953 3.835 3.835 0 01.5-1.953A3.5 3.5 0 01-.595-7.007a4.07 4.07 0 011.988-.483 4.03 4.03 0 011.981.483 3.517 3.517 0 011.372 1.344 3.835 3.835 0 01.5 1.953 3.835 3.835 0 01-.5 1.953A3.567 3.567 0 013.374-.406a3.984 3.984 0 01-1.981.49zm0-1.176a2.505 2.505 0 001.281-.329 2.322 2.322 0 00.889-.924 2.822 2.822 0 00.317-1.361 2.822 2.822 0 00-.322-1.365 2.274 2.274 0 00-.889-.917 2.548 2.548 0 00-1.281-.322 2.548 2.548 0 00-1.281.322 2.321 2.321 0 00-.9.917 2.774 2.774 0 00-.325 1.365 2.774 2.774 0 00.329 1.365 2.371 2.371 0 00.9.924 2.505 2.505 0 001.277.329zm14.994-6.4a3.013 3.013 0 012.219.812 3.25 3.25 0 01.819 2.408V0h-1.349v-4.116a2.34 2.34 0 00-.5-1.624 1.824 1.824 0 00-1.421-.546 2.128 2.128 0 00-1.624.637 2.559 2.559 0 00-.6 1.827V0h-1.343v-4.116a2.34 2.34 0 00-.5-1.624 1.824 1.824 0 00-1.421-.546 2.128 2.128 0 00-1.624.637 2.559 2.559 0 00-.6 1.827V0H7.105v-7.42h1.288v1.106a2.6 2.6 0 011.064-.875 3.563 3.563 0 011.5-.3 3.285 3.285 0 011.54.35 2.432 2.432 0 011.036 1.022A2.843 2.843 0 0114.7-7.126a3.81 3.81 0 011.687-.364zm12.259 3.828a3.852 3.852 0 01-.028.406H22.6a2.33 2.33 0 00.861 1.575 2.81 2.81 0 001.827.6 2.752 2.752 0 002.142-.9l.742.868a3.25 3.25 0 01-1.253.9 4.361 4.361 0 01-1.673.308A4.382 4.382 0 0123.163-.4a3.445 3.445 0 01-1.407-1.35 3.873 3.873 0 01-.5-1.96 3.933 3.933 0 01.483-1.946 3.46 3.46 0 011.33-1.351 3.789 3.789 0 011.911-.483 3.712 3.712 0 011.9.483 3.392 3.392 0 011.3 1.351 4.116 4.116 0 01.471 1.988zm-3.668-2.688a2.323 2.323 0 00-1.617.588 2.37 2.37 0 00-.763 1.54h4.76a2.386 2.386 0 00-.763-1.533 2.307 2.307 0 00-1.617-.595zm6.818.182a2.293 2.293 0 011.036-.98A3.76 3.76 0 0134.5-7.49v1.3a2.624 2.624 0 00-.3-.01 2.261 2.261 0 00-1.715.651 2.577 2.577 0 00-.628 1.849V0h-1.344v-7.42H31.8z" transform="translate(854 2031)"/><g id="Group_4201" data-name="Group 4201" transform="translate(840.549 1850)"><g id="inventory"><path id="Path_12854" data-name="Path 12854" class="cls-5" d="M287.215 263.5h-22.977a.738.738 0 00-.738.738v22.977a.738.738 0 00.738.738h22.977a.738.738 0 00.738-.738v-22.977a.738.738 0 00-.738-.738zm-13.7 1.476h4.428v6.6l-1.884-.942a.738.738 0 00-.66 0l-1.884.942zm12.964 21.5h-21.5v-21.5h7.06v7.8a.738.738 0 001.068.66l2.622-1.311 2.622 1.311a.738.738 0 001.068-.66v-7.8h7.06z" transform="translate(-263.5 -263.5)"/></g><g id="Ellipse_366" data-name="Ellipse 366" transform="translate(14.81 14.619)" stroke-width="1.8" stroke="#2b2f7f" fill="#f8f8ff"><circle cx="8.84" cy="8.84" r="8.84" stroke="none"/><circle cx="8.84" cy="8.84" r="7.94" fill="none"/></g><path id="Path_20438" data-name="Path 20438" d="M19.608 23.466l2.635 2.906 5.562-5" stroke="#ed3e35" fill="none" stroke-width="1.8"/></g><g id="Group_4203" data-name="Group 4203" transform="translate(833.458 1970)"><g id="Group_855" data-name="Group 855" transform="translate(9.568 14.483)"><g id="Group_615" data-name="Group 615" stroke-width="2" stroke="#2b2f7f"><path id="Path_17565" data-name="Path 17565" d="M1348.212 2193.464c0 2.927-2.374 6.089-5.3 6.089s-5.3-3.162-5.3-6.089a5.31 5.31 0 0110.6 0z" transform="translate(-1332.669 -2188.46)" fill="none"/><path id="Path_17566" data-name="Path 17566" d="M1291.966 2328.918h12.943c1.362 0 2.569-1.187 2.984-2.936l.7-2.933c.514-2.15-.319-4.464-1.89-5.249-5.267-2.6-10.712-2.263-16.29.239-1.562.719-2.437 2.954-2 5.1l.536 2.665c.371 1.834 1.606 3.109 3.017 3.114z" transform="translate(-1288.302 -2301.762)" fill="#f8f8ff"/></g></g><g id="Group_856" data-name="Group 856" transform="translate(13.633)"><path id="Path_20439" data-name="Path 20439" d="M9.963 11.712l-3.805-2-3.805 2 .727-4.237-3.079-3 4.255-.618 1.9-3.855 1.9 3.855 4.255.618-3.079 3z" stroke-width=".2" fill="#ed3e35" stroke="#ed3e35"/></g><g id="Group_858" data-name="Group 858" transform="translate(0 11.712)"><path id="Path_20439-2" data-name="Path 20439" class="cls-11" d="M468.647 451.088l-3.805-2-3.805 2 .727-4.237-3.079-3 4.255-.618 1.9-3.855 1.9 3.855 4.255.618-3.079 3zm-3.805-2.677l3.011 1.583-.575-3.352 2.436-2.374-3.366-.489-1.505-3.05-1.505 3.05-3.366.489 2.436 2.374-.575 3.352z" transform="translate(-458.684 -439.376)"/></g><g id="Group_859" data-name="Group 859" transform="translate(27.266 11.712)"><path id="Path_20439-3" data-name="Path 20439" class="cls-11" d="M468.647 451.088l-3.805-2-3.805 2 .727-4.237-3.079-3 4.255-.618 1.9-3.855 1.9 3.855 4.255.618-3.079 3zm-3.805-2.677l3.011 1.583-.575-3.352 2.436-2.374-3.366-.489-1.505-3.05-1.505 3.05-3.366.489 2.436 2.374-.575 3.352z" transform="translate(-458.684 -439.376)"/></g></g><g id="noun_Employee_4039321" transform="translate(1060.854 1973)"><path id="Path_46674" data-name="Path 46674" d="M.693 34.788h23.482a.692.692 0 00.693-.693v-4.614a12.176 12.176 0 00-6.683-10.837 12.559 12.559 0 00-2.781-1.039 9 9 0 006.154-8.48 9.124 9.124 0 10-18.249 0 9 9 0 006.155 8.479 12.559 12.559 0 00-2.781 1.039A12.176 12.176 0 000 29.48v4.615a.692.692 0 00.693.693zm4-25.663a7.739 7.739 0 117.739 7.74 7.738 7.738 0 01-7.739-7.74zm12.155 10.418l-4.413 6.625-4.413-6.625a11.237 11.237 0 018.827 0zM1.385 29.481a10.774 10.774 0 015.39-9.307l5.082 7.629a.719.719 0 001.153 0l5.082-7.629a10.774 10.774 0 015.39 9.307v3.922h-22.1z" stroke-width=".4" stroke="#2b2f7f" fill="#2b2f7f"/><path id="Path_46675" data-name="Path 46675" class="cls-13" d="M38.55 43.362h-4.944a.552.552 0 00-.553.553v3.154a.552.552 0 00.553.553h4.944a.552.552 0 00.553-.553v-3.154a.552.552 0 00-.553-.553zM38 46.516h-3.841v-2.049H38z" transform="translate(-17.736 -16.096)"/></g><g id="Group_4231" data-name="Group 4231" transform="translate(945 2033.592)"><g id="noun_finance_2093621"><g id="Group_4230" data-name="Group 4230"><g id="Group_4227" data-name="Group 4227"><path id="Path_46684" data-name="Path 46684" class="cls-5" d="M35.778 47.781a12.152 12.152 0 01-11.5-7.982c-.808.048-1.568.048-2.185.048-3.753 0-12.448-.38-12.448-3.943v-4.846c0-.1-.048-.238-.048-.333a.6.6 0 01.048-.285V26.5c0-.1-.048-.19-.048-.333a.6.6 0 01.048-.285v-4.374c0-.1-.048-.19-.048-.333a1.708 1.708 0 01.1-.523 1.616 1.616 0 01-.048-.475v-4.845c0-.1-.048-.19-.048-.333a.6.6 0 01.048-.285v-4.371c0-.1-.048-.19-.048-.333a2.385 2.385 0 01.1-.57 1.343 1.343 0 01.665-.855C12.926 6.5 21 6.4 22.1 6.4s9.169.1 11.735 2.185a1.343 1.343 0 01.665.855 2.385 2.385 0 01.1.57.809.809 0 01-.048.333v4.371c0 .1.048.19.048.285a.809.809 0 01-.048.333v4.846c0 .19-.048.333-.048.475a2.02 2.02 0 01.1.523.809.809 0 01-.048.333v2.566a10.739 10.739 0 011.235-.048 11.882 11.882 0 110 23.755zM11.073 35.809v.143c.048 1.33 4.989 2.423 11.022 2.423.618 0 1.188 0 1.758-.048a13.1 13.1 0 01-.238-2.423v-.618H22.1c-2.8 0-8.409-.238-11.022-1.853v2.376zm0-4.561v.143c.048 1.33 4.989 2.423 11.022 2.423.57 0 1.14 0 1.71-.048a10.726 10.726 0 011.283-3.516c-1.14.048-2.185.1-2.993.1-2.8 0-8.409-.238-11.022-1.853v2.756zm0-11.165v.143c.048 1.33 4.989 2.423 11.022 2.423s10.975-1.093 11.022-2.423V17.28C30.5 18.9 24.9 19.133 22.1 19.133s-8.414-.233-11.027-1.853v2.8zM22.1 8.158c-6.271 0-10.167 1.14-10.785 1.853.665.713 4.561 1.853 10.785 1.853 6.271 0 10.167-1.14 10.785-1.853-.67-.711-4.518-1.853-10.785-1.853zm0 5.464c-1 0-7.982-.048-11.022-1.71v3.326c.048 1.33 4.989 2.423 11.022 2.423s10.975-1.093 11.022-2.423v-3.327c-3.093 1.616-10.029 1.711-11.022 1.711zm0 11.165c-1 0-7.982-.048-11.022-1.71V26.4c.048 1.33 4.989 2.423 11.022 2.423a36.315 36.315 0 004.086-.19 12.2 12.2 0 016.936-4.276v-1.281c-3.093 1.663-10.029 1.71-11.022 1.71zm13.683.808A10.361 10.361 0 1046.42 35.951a10.537 10.537 0 00-10.642-10.357z" transform="translate(-9.6 -6.4)"/></g></g></g><path id="Path_46685" data-name="Path 46685" d="M4.631 1.6A4.05 4.05 0 015.3 2.841l1.371-.011-.434 1.606-.761.006a3.324 3.324 0 01-2.805 3.2l2.693 3.473-1.949.016L.738 7.7l-.1-1.6 1.335-.011a1.914 1.914 0 001.9-1.618l-3.7.03.438-1.609 3.043-.025A2.178 2.178 0 001.7 1.641L0 1.655.434.049 6.494 0 6.06 1.606l-1.428.012z" transform="rotate(1 -1411.286 1297.812)" fill-rule="evenodd" fill="#ed3e35"/></g><g id="Group_4269" data-name="Group 4269" transform="translate(3.248 316.018)"><g id="noun_revenue_1415397" transform="translate(943.144 1468.864)"><path id="Path_46687" data-name="Path 46687" class="cls-15" d="M4.144 21c18.332 0 27.094-9.7 31.227-14.053v3.567a.633.633 0 001.266 0V5.268c0-.012-.006-.021-.007-.033a.653.653 0 00-.026-.128A.612.612 0 0036.57 5a.651.651 0 00-.064-.1.629.629 0 00-.084-.1c-.008-.008-.013-.019-.021-.026a.558.558 0 00-.074-.038.638.638 0 00-.114-.06.566.566 0 00-.128-.025.627.627 0 00-.085-.016h-5.748a.633.633 0 100 1.266h4.364C30.733 10.1 22.291 19.738 4.143 19.738a.633.633 0 100 1.266z" transform="translate(-3.252 -4.635)"/><path id="Path_46688" data-name="Path 46688" class="cls-15" d="M11.963 28.978H3.838a.633.633 0 00-.633.633v11.967a.633.633 0 00.633.633h8.125a.633.633 0 00.633-.633V29.611a.633.633 0 00-.633-.633zm-.633 11.966H4.471v-10.7h6.859v10.7z" transform="translate(-3.205 -8.426)"/><path id="Path_46689" data-name="Path 46689" class="cls-15" d="M42.55 14.806h-1.017a.613.613 0 00-.167.034c-.018.005-.036 0-.054.011a.615.615 0 00-.2.122s-.008 0-.012.007l-.019.02a28.5 28.5 0 01-6.9 4.632l-.029.015a.565.565 0 00-.046.035.619.619 0 00-.139.107.685.685 0 00-.053.079.643.643 0 00-.072.123.6.6 0 00-.024.123.648.648 0 00-.019.1V39.37a.633.633 0 00.633.633h8.126a.633.633 0 00.633-.633V15.439a.635.635 0 00-.641-.633zm-.633 23.931h-6.86V20.6a29.732 29.732 0 006.714-4.524h.146z" transform="translate(-7.969 -6.219)"/><path id="Path_46690" data-name="Path 46690" class="cls-15" d="M27.857 23.216c0-.008-.008-.012-.011-.019a.652.652 0 00-.071-.122.629.629 0 00-.059-.087 2.1 2.1 0 00-.194-.14.62.62 0 00-.119-.033.651.651 0 00-.121-.024c-.009 0-.016-.005-.024-.005a.649.649 0 00-.114.023.465.465 0 00-.089.012 53.572 53.572 0 01-8.031 2.011.59.59 0 00-.064.024.643.643 0 00-.123.048.62.62 0 00-.095.064.575.575 0 00-.089.086.62.62 0 00-.065.1.66.66 0 00-.05.111.583.583 0 00-.024.122.62.62 0 00-.014.071v15.155a.633.633 0 00.633.633h8.126a.633.633 0 00.633-.633v-17.2a.728.728 0 00-.02-.1.5.5 0 00-.015-.097zm-8.093 16.763v-14a55.086 55.086 0 006.86-1.7v15.7z" transform="translate(-5.587 -7.462)"/></g><path id="Path_46691" data-name="Path 46691" class="cls-13" d="M3.94 10.458a3.245 3.245 0 00.361.087 3.86 3.86 0 00.4.052 5.8 5.8 0 00.419.017v.842l.134.03c.056.012.111.021.168.028a1.512 1.512 0 00.167.009 1.478 1.478 0 00.16-.009 1.253 1.253 0 00.163-.029l.13-.033v-.945a2.083 2.083 0 001.082-.6 1.812 1.812 0 00.445-1.259 1.861 1.861 0 00-.107-.664 1.476 1.476 0 00-.3-.486 1.818 1.818 0 00-.451-.347 5.749 5.749 0 00-.553-.264l-.314-.133q-.254-.106-.454-.2a1.539 1.539 0 01-.312-.182.6.6 0 01-.171-.2.572.572 0 01-.056-.264.531.531 0 01.208-.471 1.222 1.222 0 01.7-.167 3.028 3.028 0 01.641.06 3.524 3.524 0 01.488.138l.156.058.056-.154a2.743 2.743 0 00.2-.731l.016-.133-.128-.048a3.292 3.292 0 00-.605-.16 5.964 5.964 0 00-.539-.066V3.5l-.13-.033a1.443 1.443 0 00-.664 0l-.127.033v.787a1.894 1.894 0 00-1.056.531 1.621 1.621 0 00-.431 1.158 1.814 1.814 0 00.093.611A1.357 1.357 0 004 7.043a1.724 1.724 0 00.4.325 3.485 3.485 0 00.476.235l.395.164.5.218a1.365 1.365 0 01.315.186.563.563 0 01.162.21.781.781 0 01.052.319.71.71 0 01-.266.592 1.444 1.444 0 01-.9.226 3.031 3.031 0 01-.679-.065 7.387 7.387 0 01-.564-.158l-.156-.051-.054.156a4.27 4.27 0 00-.125.372 2.165 2.165 0 00-.076.4l-.012.136.129.043.343.107z" transform="translate(944.803 1466.085)"/><circle id="Ellipse_504" data-name="Ellipse 504" cx="6.526" cy="6.526" transform="rotate(-83.97 1294.11 215.772)" stroke-width="1.5" fill="none" stroke="#2b2f7f" r="6.526"/></g><g id="noun_expense_2712900" transform="translate(1471.104 1932.686)"><g id="Group_4270" data-name="Group 4270" transform="translate(-413.128 -84.757)"><path id="Path_46692" data-name="Path 46692" class="cls-13" d="M39.168 7.685v5.672h1.955V7.685l2.541 2.541 1.384-1.38-4.916-4.916-4.915 4.915 1.384 1.38z" transform="translate(-18.46 -3.93)"/><path id="Path_46692-2" data-name="Path 46692" class="cls-5" d="M32.933 31.053h1.959v-5.672h-1.959zm4.5-13.487h-7.82v-6.05a.976.976 0 00-.979-.987h-8.8a4.5 4.5 0 00-4.5 4.5v19.347a4.5 4.5 0 004.5 4.511h17.6a4.5 4.5 0 004.5-4.511V22.062a4.5 4.5 0 00-4.501-4.496zm-17.6-5.082h7.823v5.082h-7.82a2.541 2.541 0 110-5.082zm20.14 21.892a2.545 2.545 0 01-2.541 2.541h-17.6a2.545 2.545 0 01-2.541-2.541V18.73a4.465 4.465 0 002.541.79h17.6a2.545 2.545 0 012.541 2.541z" transform="translate(-15.34 -5.816)"/></g></g></g></svg>